#Comment line ignore any data following # character 
#Hierarchical Translation and Rotation (.htr) file 
[Header]	
#Header keywords are followed by a single value 
FileType HTR		#Single word string
DataType HTRS		#Translation followed by rotation and scale data
FileVersion 1		#integer
NumSegments 84		#integer
NumFrames 2		#integer
DataFrameRate 30		#integer, data frame rate in this file
EulerRotationOrder ZYX
CalibrationUnits mm
RotationUnits Degrees
GlobalAxisofGravity Y
BoneLengthAxis Y
ScaleFactor 1.00
[SegmentNames&Hierarchy]
#CHILD	PARENT
MASTER GLOBAL
root MASTER
chest root
L_mid_tent01 root
R_mid_tent01 root
spine01 root
Bip01_Neck chest
L_humerus chest
R_humerus chest
weapon_bone chest
Bip01_Head Bip01_Neck
eye_left_bone Bip01_Head
eye_right_bone Bip01_Head
L_forearm L_humerus
L_front_hand L_forearm
L_weapon_bone L_forearm
L_front_hand01_01 L_front_hand
L_front_hand02_01 L_front_hand
L_front_hand03_01 L_front_hand
L_front_hand01_02 L_front_hand01_01
L_front_hand02_02 L_front_hand02_01
L_front_hand03_02 L_front_hand03_01
R_forearm R_humerus
R_front_hand R_forearm
R_weapon_bone R_forearm
R_front_hand01_01 R_front_hand
R_front_hand02_01 R_front_hand
R_front_hand03_01 R_front_hand
R_front_hand01_02 R_front_hand01_01
R_front_hand02_02 R_front_hand02_01
R_front_hand03_02 R_front_hand03_01
null_rope01_connect L_mid_tent01
Rope1_Seg01 null_rope01_connect
Rope1_Seg02 Rope1_Seg01
Rope1_Seg03 Rope1_Seg02
Rope1_Seg04 Rope1_Seg03
Rope1_Seg05 Rope1_Seg04
Rope1_Seg06 Rope1_Seg05
Rope1_Seg07 Rope1_Seg06
Rope1_Seg09 Rope1_Seg07
L_mid_hand01 Rope1_Seg09
L_mid_hand02 Rope1_Seg09
L_mid_hand03 Rope1_Seg09
null_rope02_connect R_mid_tent01
Rope2_Seg01 null_rope02_connect
Rope2_Seg02 Rope2_Seg01
Rope2_Seg03 Rope2_Seg02
Rope2_Seg04 Rope2_Seg03
Rope2_Seg05 Rope2_Seg04
Rope2_Seg06 Rope2_Seg05
Rope2_Seg07 Rope2_Seg06
Rope2_Seg09 Rope2_Seg07
R_mid_hand01 Rope2_Seg09
R_mid_hand02 Rope2_Seg09
R_mid_hand03 Rope2_Seg09
spine02 spine01
spine03 spine02
pelvis spine03
null_rope03_connect pelvis
null_rope04_connect pelvis
Rope3_Seg01 null_rope03_connect
Rope3_Seg02 Rope3_Seg01
Rope3_Seg03 Rope3_Seg02
Rope3_Seg04 Rope3_Seg03
Rope3_Seg05 Rope3_Seg04
Rope3_Seg06 Rope3_Seg05
Rope3_Seg07 Rope3_Seg06
Rope3_Seg08 Rope3_Seg07
Rope3_Seg09 Rope3_Seg08
R_rear_hand01 Rope3_Seg09
R_rear_hand02 Rope3_Seg09
R_rear_hand03 Rope3_Seg09
Rope4_Seg01 null_rope04_connect
Rope4_Seg02 Rope4_Seg01
Rope4_Seg03 Rope4_Seg02
Rope4_Seg04 Rope4_Seg03
Rope4_Seg05 Rope4_Seg04
Rope4_Seg06 Rope4_Seg05
Rope4_Seg07 Rope4_Seg06
Rope4_Seg08 Rope4_Seg07
Rope4_Seg09 Rope4_Seg08
L_rear_hand01 Rope4_Seg09
L_rear_hand02 Rope4_Seg09
L_rear_hand03 Rope4_Seg09
[BasePosition]
#SegmentName Tx, Ty, Tz, Rx, Ry, Rz, BoneLength
MASTER 0.000000 0.000000 0.000000 -90.000000 0.000000 0.000000 10.000000 
root 0.000000 0.000000 0.000000 0.000000 0.000000 0.000000 10.000000 
chest 0.000000 0.000000 0.000000 0.000000 0.000000 0.000000 10.000000 
L_mid_tent01 0.000000 0.000000 0.000000 0.000000 0.000000 0.000000 10.000000 
R_mid_tent01 0.000000 0.000000 0.000000 0.000000 0.000000 0.000000 10.000000 
spine01 0.000000 0.000000 0.000000 0.000000 0.000000 0.000000 10.000000 
Bip01_Neck 0.000000 0.000000 0.000000 0.000000 0.000000 0.000000 10.000000 
L_humerus 0.000000 0.000000 0.000000 0.000000 0.000000 0.000000 10.000000 
R_humerus 0.000000 0.000000 0.000000 0.000000 0.000000 0.000000 10.000000 
weapon_bone 0.000000 0.000000 0.000000 0.000000 0.000000 0.000000 10.000000 
Bip01_Head 0.000000 0.000000 0.000000 0.000000 0.000000 0.000000 10.000000 
eye_left_bone 0.000000 0.000000 0.000000 0.000000 0.000000 0.000000 10.000000 
eye_right_bone 0.000000 0.000000 0.000000 0.000000 0.000000 0.000000 10.000000 
L_forearm 0.000000 0.000000 0.000000 0.000000 0.000000 0.000000 10.000000 
L_front_hand 0.000000 0.000000 0.000000 0.000000 0.000000 0.000000 10.000000 
L_weapon_bone 0.000000 0.000000 0.000000 0.000000 0.000000 0.000000 10.000000 
L_front_hand01_01 0.000000 0.000000 0.000000 0.000000 0.000000 0.000000 10.000000 
L_front_hand02_01 0.000000 0.000000 0.000000 0.000000 0.000000 0.000000 10.000000 
L_front_hand03_01 0.000000 0.000000 0.000000 0.000000 0.000000 0.000000 10.000000 
L_front_hand01_02 0.000000 0.000000 0.000000 0.000000 0.000000 0.000000 10.000000 
L_front_hand02_02 0.000000 0.000000 0.000000 0.000000 0.000000 0.000000 10.000000 
L_front_hand03_02 0.000000 0.000000 0.000000 0.000000 0.000000 0.000000 10.000000 
R_forearm 0.000000 0.000000 0.000000 0.000000 0.000000 0.000000 10.000000 
R_front_hand 0.000000 0.000000 0.000000 0.000000 0.000000 0.000000 10.000000 
R_weapon_bone 0.000000 0.000000 0.000000 0.000000 0.000000 0.000000 10.000000 
R_front_hand01_01 0.000000 0.000000 0.000000 0.000000 0.000000 0.000000 10.000000 
R_front_hand02_01 0.000000 0.000000 0.000000 0.000000 0.000000 0.000000 10.000000 
R_front_hand03_01 0.000000 0.000000 0.000000 0.000000 0.000000 0.000000 10.000000 
R_front_hand01_02 0.000000 0.000000 0.000000 0.000000 0.000000 0.000000 10.000000 
R_front_hand02_02 0.000000 0.000000 0.000000 0.000000 0.000000 0.000000 10.000000 
R_front_hand03_02 0.000000 0.000000 0.000000 0.000000 0.000000 0.000000 10.000000 
null_rope01_connect 0.000000 0.000000 0.000000 0.000000 0.000000 0.000000 10.000000 
Rope1_Seg01 0.000000 0.000000 0.000000 0.000000 0.000000 0.000000 10.000000 
Rope1_Seg02 0.000000 0.000000 0.000000 0.000000 0.000000 0.000000 10.000000 
Rope1_Seg03 0.000000 0.000000 0.000000 0.000000 0.000000 0.000000 10.000000 
Rope1_Seg04 0.000000 0.000000 0.000000 0.000000 0.000000 0.000000 10.000000 
Rope1_Seg05 0.000000 0.000000 0.000000 0.000000 0.000000 0.000000 10.000000 
Rope1_Seg06 0.000000 0.000000 0.000000 0.000000 0.000000 0.000000 10.000000 
Rope1_Seg07 0.000000 0.000000 0.000000 0.000000 0.000000 0.000000 10.000000 
Rope1_Seg09 0.000000 0.000000 0.000000 0.000000 0.000000 0.000000 10.000000 
L_mid_hand01 0.000000 0.000000 0.000000 0.000000 0.000000 0.000000 10.000000 
L_mid_hand02 0.000000 0.000000 0.000000 0.000000 0.000000 0.000000 10.000000 
L_mid_hand03 0.000000 0.000000 0.000000 0.000000 0.000000 0.000000 10.000000 
null_rope02_connect 0.000000 0.000000 0.000000 0.000000 0.000000 0.000000 10.000000 
Rope2_Seg01 0.000000 0.000000 0.000000 0.000000 0.000000 0.000000 10.000000 
Rope2_Seg02 0.000000 0.000000 0.000000 0.000000 0.000000 0.000000 10.000000 
Rope2_Seg03 0.000000 0.000000 0.000000 0.000000 0.000000 0.000000 10.000000 
Rope2_Seg04 0.000000 0.000000 0.000000 0.000000 0.000000 0.000000 10.000000 
Rope2_Seg05 0.000000 0.000000 0.000000 0.000000 0.000000 0.000000 10.000000 
Rope2_Seg06 0.000000 0.000000 0.000000 0.000000 0.000000 0.000000 10.000000 
Rope2_Seg07 0.000000 0.000000 0.000000 0.000000 0.000000 0.000000 10.000000 
Rope2_Seg09 0.000000 0.000000 0.000000 0.000000 0.000000 0.000000 10.000000 
R_mid_hand01 0.000000 0.000000 0.000000 0.000000 0.000000 0.000000 10.000000 
R_mid_hand02 0.000000 0.000000 0.000000 0.000000 0.000000 0.000000 10.000000 
R_mid_hand03 0.000000 0.000000 0.000000 0.000000 0.000000 0.000000 10.000000 
spine02 0.000000 0.000000 0.000000 0.000000 0.000000 0.000000 10.000000 
spine03 0.000000 0.000000 0.000000 0.000000 0.000000 0.000000 10.000000 
pelvis 0.000000 0.000000 0.000000 0.000000 0.000000 0.000000 10.000000 
null_rope03_connect 0.000000 0.000000 0.000000 0.000000 0.000000 0.000000 10.000000 
null_rope04_connect 0.000000 0.000000 0.000000 0.000000 0.000000 0.000000 10.000000 
Rope3_Seg01 0.000000 0.000000 0.000000 0.000000 0.000000 0.000000 10.000000 
Rope3_Seg02 0.000000 0.000000 0.000000 0.000000 0.000000 0.000000 10.000000 
Rope3_Seg03 0.000000 0.000000 0.000000 0.000000 0.000000 0.000000 10.000000 
Rope3_Seg04 0.000000 0.000000 0.000000 0.000000 0.000000 0.000000 10.000000 
Rope3_Seg05 0.000000 0.000000 0.000000 0.000000 0.000000 0.000000 10.000000 
Rope3_Seg06 0.000000 0.000000 0.000000 0.000000 0.000000 0.000000 10.000000 
Rope3_Seg07 0.000000 0.000000 0.000000 0.000000 0.000000 0.000000 10.000000 
Rope3_Seg08 0.000000 0.000000 0.000000 0.000000 0.000000 0.000000 10.000000 
Rope3_Seg09 0.000000 0.000000 0.000000 0.000000 0.000000 0.000000 10.000000 
R_rear_hand01 0.000000 0.000000 0.000000 0.000000 0.000000 0.000000 10.000000 
R_rear_hand02 0.000000 0.000000 0.000000 0.000000 0.000000 0.000000 10.000000 
R_rear_hand03 0.000000 0.000000 0.000000 0.000000 0.000000 0.000000 10.000000 
Rope4_Seg01 0.000000 0.000000 0.000000 0.000000 0.000000 0.000000 10.000000 
Rope4_Seg02 0.000000 0.000000 0.000000 0.000000 0.000000 0.000000 10.000000 
Rope4_Seg03 0.000000 0.000000 0.000000 0.000000 0.000000 0.000000 10.000000 
Rope4_Seg04 0.000000 0.000000 0.000000 0.000000 0.000000 0.000000 10.000000 
Rope4_Seg05 0.000000 0.000000 0.000000 0.000000 0.000000 0.000000 10.000000 
Rope4_Seg06 0.000000 0.000000 0.000000 0.000000 0.000000 0.000000 10.000000 
Rope4_Seg07 0.000000 0.000000 0.000000 0.000000 0.000000 0.000000 10.000000 
Rope4_Seg08 0.000000 0.000000 0.000000 0.000000 0.000000 0.000000 10.000000 
Rope4_Seg09 0.000000 0.000000 0.000000 0.000000 0.000000 0.000000 10.000000 
L_rear_hand01 0.000000 0.000000 0.000000 0.000000 0.000000 0.000000 10.000000 
L_rear_hand02 0.000000 0.000000 0.000000 0.000000 0.000000 0.000000 10.000000 
L_rear_hand03 0.000000 0.000000 0.000000 0.000000 0.000000 0.000000 10.000000 
#Beginning of Data. Separated by tabs
#Fr	Tx	Ty	Tz	Rx	Ry	Rz	SF
[MASTER]
26 0.000000 0.000000 0.000000 0.001660 0.001660 0.001660 0.000000
27 0.000000 0.000000 0.000000 0.001660 0.001660 0.001660 0.000000
[root]
26 -96.038635 -63.212448 1082.713013 -91.421638 -27.557606 -90.635406 1088.800537
27 -96.430649 -63.305252 1069.030273 -91.381096 -27.144588 -90.717354 1075.235840
[chest]
26 -84.512650 -34.090519 0.000000 -3.635740 -1.456656 176.891937 91.129311
27 -84.512650 -34.090519 0.000000 -3.458567 -1.729997 175.729507 91.129311
[L_mid_tent01]
26 27.299524 22.177397 -249.918015 -20.502296 30.941885 -6.338716 252.380890
27 27.299526 22.177391 -249.918015 -19.471533 26.867445 -13.204969 252.380890
[R_mid_tent01]
26 23.228794 24.509907 226.238495 -159.117142 -37.240108 4.802880 228.744751
27 23.228794 24.509907 226.238495 -157.350311 -25.026716 -6.032753 228.744751
[spine01]
26 -0.361383 -0.195265 0.000000 -0.058757 0.375085 12.160450 0.410763
27 -0.361383 -0.195265 0.000000 -0.106483 0.368239 12.024193 0.410763
[Bip01_Neck]
26 165.484543 71.581718 0.000119 175.896118 1.177290 24.871183 180.302734
27 165.484543 71.581718 0.000119 175.896118 1.177290 24.871183 180.302734
[L_humerus]
26 -13.983130 -135.272980 -120.471481 -82.666023 1.017788 -166.354858 181.680161
27 -13.983130 -135.272980 -120.471481 -82.412254 0.883307 -163.673126 181.680161
[R_humerus]
26 -13.983309 -135.273102 125.287651 94.393478 0.889245 -171.357651 184.909012
27 -13.983309 -135.273102 125.287651 94.271851 0.480187 -168.964783 184.909012
[weapon_bone]
26 235.964890 -300.705902 0.000000 0.000000 -89.951546 -128.212341 382.234833
27 235.964890 -300.705902 0.000000 0.000000 -89.951546 -128.212341 382.234833
[Bip01_Head]
26 234.158386 168.921249 3.637676 1.407572 2.997739 -56.465611 288.752106
27 230.324341 173.622467 0.493298 2.033892 2.924257 -53.226116 288.434235
[eye_left_bone]
26 -24.626970 125.451866 -64.772606 0.000000 -90.000000 -99.840431 143.318359
27 -24.626970 125.451866 -64.772606 0.000000 -90.000000 -99.840431 143.318359
[eye_right_bone]
26 -24.626970 125.451866 64.327362 0.000000 -89.960434 80.159386 143.117676
27 -24.626970 125.451866 64.327362 0.000000 -89.960434 80.159386 143.117676
[L_forearm]
26 322.776093 0.000000 -0.000119 0.000101 0.002345 -85.055168 322.776093
27 322.776093 0.000000 -0.000119 0.000091 0.002346 -85.570747 322.776093
[L_front_hand]
26 241.149185 -0.042021 -3.300071 -178.033051 -1.128436 -51.456100 241.171753
27 241.149185 -0.042021 -3.300071 -177.962952 -0.996977 -55.201553 241.171753
[L_weapon_bone]
26 156.183838 0.000000 0.000000 0.001802 0.001504 10.327406 156.183838
27 156.183838 0.000000 0.000000 0.001774 0.001537 8.188807 156.183838
[L_front_hand01_01]
26 86.095154 20.947098 -0.655860 0.405585 -0.442306 -4.620490 88.609184
27 86.095154 20.947098 -0.655860 0.405585 -0.442306 -4.620490 88.609184
[L_front_hand02_01]
26 86.935165 -11.437475 24.513514 116.959450 3.630818 1.495453 91.046425
27 86.935165 -11.437475 24.513514 116.959450 3.630817 1.495453 91.046425
[L_front_hand03_01]
26 86.637497 -14.123976 -20.424902 -118.420097 -4.656303 -0.152527 90.126129
27 86.637497 -14.123976 -20.424902 -118.420097 -4.656303 -0.152527 90.126129
[L_front_hand01_02]
26 71.020905 -0.000179 0.000030 0.001534 0.001777 -8.378851 71.020905
27 71.020905 -0.000179 0.000030 0.001534 0.001777 -8.378850 71.020905
[L_front_hand02_02]
26 71.020927 -0.000119 0.000060 0.001534 0.001777 -8.378851 71.020927
27 71.020927 -0.000119 0.000060 0.001534 0.001777 -8.378850 71.020927
[L_front_hand03_02]
26 71.020905 -0.000060 0.000060 0.001534 0.001777 -8.378851 71.020905
27 71.020905 -0.000060 0.000060 0.001534 0.001777 -8.378850 71.020905
[R_forearm]
26 322.776428 -0.000060 0.000030 0.205586 -0.049174 -77.025505 322.776428
27 322.776428 -0.000060 0.000030 0.205834 -0.048137 -77.603020 322.776428
[R_front_hand]
26 238.847015 -0.006795 2.210259 -1.700302 -0.315144 -89.255524 238.857239
27 238.847015 -0.006795 2.210259 -1.697625 -0.328387 -89.692665 238.857239
[R_weapon_bone]
26 155.664093 0.002503 -0.000030 0.003303 0.001624 -105.952888 155.664078
27 155.664093 0.002503 -0.000030 0.003345 0.001536 -102.930489 155.664078
[R_front_hand01_01]
26 87.624611 14.231146 22.918642 -116.960205 3.496675 -1.324138 91.683487
27 87.624611 14.231146 22.918642 -116.960213 3.496675 -1.324139 91.683487
[R_front_hand02_01]
26 89.356956 14.367283 -19.491137 118.419647 -4.257089 0.609827 92.579636
27 89.356956 14.367283 -19.491137 118.419647 -4.257089 0.609827 92.579636
[R_front_hand03_01]
26 87.286232 -22.307278 -0.143439 -0.387970 -0.231462 4.232001 90.091743
27 87.286232 -22.307278 -0.143439 -0.387970 -0.231462 4.232001 90.091743
[R_front_hand01_02]
26 71.020905 0.000060 0.000119 0.001777 0.001534 8.377220 71.020905
27 71.020905 0.000060 0.000119 0.001777 0.001534 8.377220 71.020905
[R_front_hand02_02]
26 71.020844 -0.000030 -0.000119 0.001777 0.001534 8.377220 71.020836
27 71.020844 -0.000030 -0.000119 0.001777 0.001534 8.377220 71.020836
[R_front_hand03_02]
26 71.020905 0.000000 0.000030 0.001777 0.001534 8.377220 71.020905
27 71.020905 0.000000 0.000030 0.001777 0.001534 8.377220 71.020905
[null_rope01_connect]
26 328.732483 0.000000 -0.000238 -93.710274 -52.095505 -147.731750 328.732483
27 328.732483 0.000000 -0.000238 -89.613220 -55.934261 -144.364059 328.732483
[Rope1_Seg01]
26 0.000000 0.000000 0.000000 79.032082 -50.651981 -153.773193 0.000000
27 0.000000 0.000000 0.000000 80.520958 -49.076817 -155.350449 0.000000
[Rope1_Seg02]
26 139.999863 -0.000179 0.000000 -2.029338 11.610807 -3.392109 139.999863
27 139.999863 -0.000179 0.000000 -2.199477 11.867794 -3.514725 139.999863
[Rope1_Seg03]
26 139.999924 0.000060 -0.000060 -7.992544 20.727757 -5.565368 139.999924
27 139.999924 0.000060 -0.000060 -8.388594 20.812086 -5.605729 139.999924
[Rope1_Seg04]
26 139.999924 -0.000060 -0.000119 -33.354427 34.134525 -5.246731 139.999924
27 139.999924 -0.000060 -0.000119 -34.462952 34.061260 -4.849101 139.999924
[Rope1_Seg05]
26 139.999832 0.000119 -0.000060 -38.490963 24.101040 11.432577 139.999832
27 139.999832 0.000119 -0.000060 -38.588181 23.959280 12.406536 139.999832
[Rope1_Seg06]
26 139.999954 0.000119 -0.000060 -3.009590 0.805814 2.355464 139.999954
27 139.999954 0.000119 -0.000060 -2.106827 0.614980 1.607947 139.999954
[Rope1_Seg07]
26 139.999985 0.000060 0.000000 10.525930 -3.236043 -6.764055 139.999985
27 139.999985 0.000060 0.000000 12.745304 -3.322839 -8.471318 139.999985
[Rope1_Seg09]
26 121.602913 0.000119 -0.000089 -89.793175 -1.359789 0.847147 121.602913
27 121.602913 0.000119 -0.000089 -89.793175 -1.359789 0.847147 121.602913
[L_mid_hand01]
26 103.859421 1.038730 8.195221 105.620987 -22.988333 -6.761934 104.187431
27 103.859421 1.038730 8.195221 105.620987 -22.988335 -6.761933 104.187431
[L_mid_hand02]
26 105.572853 -4.139662 -10.864139 -139.491974 20.327143 -21.528740 106.211075
27 105.572853 -4.139662 -10.864139 -139.491974 20.327143 -21.528740 106.211075
[L_mid_hand03]
26 104.641464 17.579376 -3.913581 -17.354420 7.254997 25.905659 106.179977
27 104.641464 17.579376 -3.913581 -17.354424 7.255000 25.905664 106.179977
[null_rope02_connect]
26 328.732849 0.000179 -0.000119 -98.288986 49.532326 -23.535387 328.732849
27 328.732849 0.000179 -0.000119 -99.937263 58.294025 -37.735806 328.732849
[Rope2_Seg01]
26 0.000063 0.000105 0.000028 45.068531 -56.106369 -64.061127 0.000126
27 0.000067 0.000106 0.000024 36.843880 -55.082134 -55.428814 0.000128
[Rope2_Seg02]
26 139.999741 -0.000060 -0.000119 1.403706 11.825022 -12.984201 139.999756
27 139.999741 -0.000060 -0.000119 2.103790 13.182576 -14.836531 139.999756
[Rope2_Seg03]
26 140.000107 0.000030 0.000000 8.421849 18.022583 -20.808712 140.000107
27 140.000107 0.000030 0.000000 13.845811 18.586710 -23.632601 140.000107
[Rope2_Seg04]
26 139.999802 0.000000 -0.000060 37.633362 13.023221 -22.934557 139.999802
27 139.999802 0.000000 -0.000060 46.904869 9.363936 -23.508856 139.999802
[Rope2_Seg05]
26 139.999985 -0.000060 0.000119 12.613063 -5.696558 -3.737520 139.999985
27 139.999985 -0.000060 0.000119 2.801524 -3.131013 0.028985 139.999985
[Rope2_Seg06]
26 139.999893 -0.000030 -0.000119 0.374623 -3.202654 1.173674 139.999893
27 139.999893 -0.000030 -0.000119 -7.321305 -0.506455 4.148276 139.999893
[Rope2_Seg07]
26 139.999893 0.000060 -0.000060 2.612290 -1.829339 -0.846523 139.999893
27 139.999893 0.000060 -0.000060 0.579347 -1.042468 0.110138 139.999893
[Rope2_Seg09]
26 121.338966 0.000089 -0.000060 33.793236 -1.359788 -0.847141 121.338966
27 121.338966 0.000089 -0.000060 33.793236 -1.359788 -0.847141 121.338966
[R_mid_hand01]
26 104.680779 11.144459 -10.335981 -44.070736 19.764444 21.986286 105.778534
27 104.680779 11.144459 -10.335981 -44.070736 19.764444 21.986286 105.778534
[R_mid_hand02]
26 104.070427 2.443552 8.231699 74.148849 -24.768805 7.320619 104.424065
27 104.070427 2.443552 8.231699 74.148849 -24.768806 7.320621 104.424065
[R_mid_hand03]
26 106.028137 -11.221827 -5.996406 -166.566208 8.416404 -28.789036 106.788818
27 106.028137 -11.221827 -5.996406 -166.566208 8.416404 -28.789036 106.788818
[spine02]
26 129.756927 0.001550 0.000119 -0.096032 -4.045391 -6.489841 129.756927
27 129.756927 0.001550 0.000119 -0.087825 -4.027556 -6.611192 129.756927
[spine03]
26 78.946495 0.029353 -1.651085 1.874524 -0.880383 16.241484 78.963760
27 78.967400 0.025726 -1.447019 1.894242 -1.161275 17.252834 78.980659
[pelvis]
26 169.435242 0.051022 0.000000 0.009439 2.142207 -3.619725 169.435257
27 169.435242 0.051022 0.000000 0.008413 2.258535 -3.715470 169.435257
[null_rope03_connect]
26 -1.257226 -2.466202 137.391083 124.780838 -88.799271 -25.622316 137.418976
27 -1.257226 -2.466202 137.391083 123.243309 -88.756676 -25.178635 137.418976
[null_rope04_connect]
26 -1.259640 -2.480268 -137.844437 124.780838 -88.799271 -25.622316 137.872513
27 -1.259640 -2.480268 -137.844437 123.243309 -88.756676 -25.178635 137.872513
[Rope3_Seg01]
26 0.000000 0.000000 0.000000 -145.412933 -41.243141 -60.520687 0.000000
27 0.000000 0.000000 0.000000 -144.280289 -43.177887 -63.434811 0.000000
[Rope3_Seg02]
26 139.999924 -0.000119 0.000060 1.408381 -2.599096 1.894312 139.999924
27 139.999924 -0.000119 0.000060 1.099666 -2.040446 1.960855 139.999924
[Rope3_Seg03]
26 139.999924 -0.000119 0.000119 1.813049 -3.434760 2.644490 139.999924
27 139.999924 -0.000119 0.000119 1.382700 -2.702910 2.710171 139.999924
[Rope3_Seg04]
26 139.999924 0.000119 0.000000 2.573400 -5.376691 4.002080 139.999924
27 139.999924 0.000119 0.000000 1.834102 -4.260503 3.720679 139.999924
[Rope3_Seg05]
26 139.999924 -0.000238 0.000060 4.920116 -11.426207 7.405612 139.999924
27 139.999924 -0.000238 0.000060 3.086365 -8.016620 5.928287 139.999924
[Rope3_Seg06]
26 139.999893 -0.000119 -0.000060 1.940681 -0.501739 7.755113 139.999893
27 139.999893 -0.000119 -0.000060 2.121233 -1.181411 12.515191 139.999893
[Rope3_Seg07]
26 139.999771 0.000060 -0.000119 -0.185551 10.801945 4.853931 139.999771
27 139.999771 0.000060 -0.000119 1.007528 3.013803 12.092824 139.999771
[Rope3_Seg08]
26 139.999985 -0.000060 0.000000 0.779592 5.282282 5.897249 139.999985
27 139.999985 -0.000060 0.000000 0.066764 0.686108 8.372793 139.999985
[Rope3_Seg09]
26 90.185997 -0.000179 -0.000060 89.793228 -1.359877 -0.847183 90.185997
27 90.185997 -0.000179 -0.000060 89.793228 -1.359877 -0.847183 90.185997
[R_rear_hand01]
26 103.366196 -6.073594 -10.757982 -160.090088 14.865475 -24.717991 104.101845
27 103.366196 -6.073594 -10.757982 -160.090088 14.865479 -24.717995 104.101845
[R_rear_hand02]
26 100.509819 12.039542 -7.992327 -35.711575 16.148794 24.170393 101.543350
27 100.509819 12.039542 -7.992327 -35.711582 16.148796 24.170401 101.543350
[R_rear_hand03]
26 101.539970 5.215704 5.435467 83.699944 -25.497599 6.583542 101.819031
27 101.539970 5.215704 5.435467 83.699936 -25.497597 6.583542 101.819031
[Rope4_Seg01]
26 0.000010 0.000038 -0.000114 57.630413 -41.742874 -113.313957 0.000121
27 0.000010 0.000038 -0.000114 61.352188 -42.007835 -118.877068 0.000121
[Rope4_Seg02]
26 139.999985 0.000060 0.000119 -1.457246 3.037626 -3.312889 139.999985
27 139.999985 0.000060 0.000119 -1.811664 4.870241 -2.585639 139.999985
[Rope4_Seg03]
26 139.999924 0.000000 -0.000238 -1.697937 3.921240 -4.080941 139.999924
27 139.999924 0.000000 -0.000238 -1.788139 5.989768 -2.960020 139.999924
[Rope4_Seg04]
26 139.999985 0.000000 0.000119 -1.587196 3.733152 -4.381301 139.999985
27 139.999985 0.000000 0.000119 -1.224544 5.914650 -2.448921 139.999985
[Rope4_Seg05]
26 139.999802 -0.000060 -0.000119 -1.574264 3.697034 -4.935043 139.999802
27 139.999802 -0.000060 -0.000119 -0.890867 6.575184 -2.511853 139.999802
[Rope4_Seg06]
26 139.999924 0.000000 0.000060 -3.724104 15.617634 -10.470953 139.999924
27 139.999924 0.000000 0.000060 -1.219756 14.364347 -7.265341 139.999924
[Rope4_Seg07]
26 139.999802 0.000000 0.000000 -0.700236 18.151274 -9.783004 139.999802
27 139.999802 0.000000 0.000000 1.059285 15.512210 -8.277395 139.999802
[Rope4_Seg08]
26 139.999924 0.000000 0.000119 -0.245647 8.116194 -4.742200 139.999924
27 139.999924 0.000000 0.000119 0.288266 7.659395 -4.237886 139.999924
[Rope4_Seg09]
26 90.185791 0.000060 0.000060 -135.617828 2.228885 0.850567 90.185791
27 90.185791 0.000060 0.000060 -135.617828 2.228885 0.850567 90.185791
[L_rear_hand01]
26 101.696655 -8.392275 -7.654577 -36.242058 -14.765300 157.809067 102.329041
27 101.696655 -8.392275 -7.654577 -36.242058 -14.765300 157.809067 102.329041
[L_rear_hand02]
26 102.726799 -1.568258 5.773216 83.814362 23.151865 173.698151 102.900848
27 102.726799 -1.568258 5.773216 83.814362 23.151863 173.698151 102.900848
[L_rear_hand03]
26 104.552910 9.721220 -10.420293 -159.518845 -14.052425 -157.569275 105.519653
27 104.552910 9.721220 -10.420293 -159.518845 -14.052428 -157.569275 105.519653
